<svg 
 xmlns="http://www.w3.org/2000/svg"
 width="26px" height="26px">
<path fill-rule="evenodd"  fill="rgb(141, 198, 64)"
 d="M22.550,2.824 C19.111,-0.696 6.451,-0.696 3.013,2.824 C-0.426,6.344 -0.817,19.720 3.013,22.848 C6.764,25.978 18.720,25.978 22.550,22.848 C26.379,19.720 25.988,6.344 22.550,2.824 ZM20.358,10.446 L12.028,18.019 C11.701,18.346 11.309,18.607 10.851,18.607 C10.394,18.607 9.936,18.411 9.674,18.019 L6.014,13.308 C5.491,12.653 5.621,11.737 6.275,11.213 C6.929,10.690 7.844,10.822 8.367,11.476 L10.851,14.682 L18.004,8.612 C18.527,7.959 19.443,7.828 20.096,8.352 C20.750,8.875 20.881,9.792 20.358,10.446 Z"/>
</svg>