<?xml version="1.0" encoding="UTF-8" standalone="no"?>
<svg 
 xmlns="http://www.w3.org/2000/svg"
 xmlns:xlink="http://www.w3.org/1999/xlink"
 width="144px" height="26px">
<defs>
<linearGradient id="PSgrad_0" x1="92.05%" x2="0%" y1="0%" y2="39.073%">
  <stop offset="0%" stop-color="rgb(254,116,109)" stop-opacity="1" />
  <stop offset="100%" stop-color="rgb(255,77,68)" stop-opacity="1" />
</linearGradient>

</defs>
<path fill-rule="evenodd"  fill="rgb(254, 116, 109)"
 d="M17.795,23.359 L3.833,23.359 C3.497,23.336 3.243,23.038 3.266,22.694 C3.287,22.383 3.529,22.136 3.833,22.115 L17.795,22.097 L17.795,20.958 C17.794,20.815 17.681,20.700 17.541,20.698 L3.214,20.698 C2.114,20.698 1.223,21.608 1.223,22.731 C1.223,23.854 2.114,24.764 3.214,24.764 L17.541,24.764 C17.608,24.764 17.672,24.738 17.720,24.690 C17.767,24.641 17.793,24.575 17.793,24.507 L17.795,23.359 ZM3.214,0.000 L10.563,0.000 L10.563,7.576 C10.563,8.108 11.087,8.368 11.498,7.703 L12.946,5.337 L14.393,7.703 C14.802,8.371 15.329,8.108 15.329,7.576 L15.329,0.000 L17.520,0.000 C18.337,0.002 18.998,0.677 19.000,1.511 L19.000,24.492 C18.999,24.892 18.843,25.275 18.566,25.556 C18.290,25.840 17.915,25.999 17.523,26.000 L3.214,26.000 C1.441,25.995 0.005,24.528 -0.000,22.718 L-0.000,3.291 C-0.000,1.477 1.437,0.005 3.214,0.000 L3.214,0.000 Z"/>
<path fill="url(#PSgrad_0)"
 d="M17.795,23.359 L3.833,23.359 C3.497,23.336 3.243,23.038 3.266,22.694 C3.287,22.383 3.529,22.136 3.833,22.115 L17.795,22.097 L17.795,20.958 C17.794,20.815 17.681,20.700 17.541,20.698 L3.214,20.698 C2.114,20.698 1.223,21.608 1.223,22.731 C1.223,23.854 2.114,24.764 3.214,24.764 L17.541,24.764 C17.608,24.764 17.672,24.738 17.720,24.690 C17.767,24.641 17.793,24.575 17.793,24.507 L17.795,23.359 ZM3.214,0.000 L10.563,0.000 L10.563,7.576 C10.563,8.108 11.087,8.368 11.498,7.703 L12.946,5.337 L14.393,7.703 C14.802,8.371 15.329,8.108 15.329,7.576 L15.329,0.000 L17.520,0.000 C18.337,0.002 18.998,0.677 19.000,1.511 L19.000,24.492 C18.999,24.892 18.843,25.275 18.566,25.556 C18.290,25.840 17.915,25.999 17.523,26.000 L3.214,26.000 C1.441,25.995 0.005,24.528 -0.000,22.718 L-0.000,3.291 C-0.000,1.477 1.437,0.005 3.214,0.000 L3.214,0.000 Z"/>
<path fill-rule="evenodd"  fill="rgb(255 135 77)"
 d="M142.866,10.683 L136.948,22.827 C136.802,23.135 136.604,23.366 136.354,23.520 C136.105,23.674 135.841,23.751 135.562,23.751 C135.152,23.751 134.792,23.619 134.484,23.355 C134.176,23.091 134.022,22.768 134.022,22.387 C134.022,22.152 134.074,21.932 134.176,21.727 L135.628,18.713 L131.712,10.683 C131.624,10.478 131.580,10.280 131.580,10.089 C131.580,9.693 131.753,9.356 132.097,9.077 C132.442,8.799 132.834,8.659 133.274,8.659 C133.568,8.659 133.839,8.736 134.088,8.890 C134.338,9.044 134.536,9.275 134.682,9.583 L137.410,15.523 L140.072,9.583 C140.204,9.275 140.391,9.048 140.633,8.901 C140.875,8.755 141.136,8.681 141.414,8.681 C141.840,8.681 142.214,8.817 142.536,9.088 C142.859,9.360 143.020,9.686 143.020,10.067 C143.020,10.273 142.969,10.478 142.866,10.683 ZM128.545,19.791 C128.075,19.791 127.679,19.659 127.357,19.395 C127.034,19.131 126.873,18.743 126.873,18.229 L126.873,13.103 C126.873,12.399 126.752,11.904 126.510,11.618 C126.268,11.332 125.897,11.189 125.399,11.189 C124.783,11.189 124.291,11.402 123.925,11.827 C123.558,12.253 123.375,12.847 123.375,13.609 L123.375,18.229 C123.375,18.743 123.221,19.131 122.913,19.395 C122.605,19.659 122.209,19.791 121.725,19.791 C121.255,19.791 120.859,19.659 120.537,19.395 C120.214,19.131 120.053,18.743 120.053,18.229 L120.053,13.103 C120.053,12.399 119.932,11.904 119.690,11.618 C119.448,11.332 119.077,11.189 118.579,11.189 C117.963,11.189 117.471,11.402 117.105,11.827 C116.738,12.253 116.555,12.847 116.555,13.609 L116.555,18.229 C116.555,18.743 116.397,19.131 116.082,19.395 C115.766,19.659 115.374,19.791 114.905,19.791 C114.435,19.791 114.039,19.659 113.717,19.395 C113.394,19.131 113.233,18.743 113.233,18.229 L113.233,10.155 C113.233,9.671 113.398,9.297 113.728,9.033 C114.058,8.769 114.457,8.637 114.927,8.637 C115.367,8.637 115.733,8.766 116.027,9.022 C116.320,9.279 116.467,9.635 116.467,10.089 L116.467,10.309 C116.819,9.752 117.277,9.327 117.842,9.033 C118.406,8.740 119.048,8.593 119.767,8.593 C120.544,8.593 121.200,8.751 121.736,9.066 C122.271,9.382 122.685,9.891 122.979,10.595 C123.316,9.979 123.796,9.492 124.420,9.132 C125.043,8.773 125.751,8.593 126.543,8.593 C127.716,8.593 128.618,8.949 129.249,9.660 C129.879,10.372 130.195,11.534 130.195,13.147 L130.195,18.229 C130.195,18.743 130.041,19.131 129.733,19.395 C129.425,19.659 129.029,19.791 128.545,19.791 ZM110.351,14.885 L104.191,14.885 C104.293,15.751 104.557,16.378 104.983,16.766 C105.408,17.155 106.017,17.349 106.809,17.349 C107.234,17.349 107.615,17.298 107.953,17.195 C108.290,17.093 108.664,16.953 109.075,16.777 C109.280,16.689 109.478,16.612 109.669,16.546 C109.859,16.480 110.028,16.447 110.175,16.447 C110.468,16.447 110.706,16.565 110.890,16.799 C111.073,17.034 111.165,17.335 111.165,17.701 C111.165,17.951 111.091,18.182 110.945,18.394 C110.798,18.607 110.593,18.787 110.329,18.933 C109.830,19.197 109.251,19.414 108.591,19.582 C107.931,19.750 107.322,19.835 106.765,19.835 C105.591,19.835 104.568,19.608 103.696,19.153 C102.823,18.699 102.152,18.050 101.683,17.206 C101.213,16.363 100.979,15.369 100.979,14.225 C100.979,13.125 101.206,12.150 101.661,11.299 C102.115,10.449 102.746,9.785 103.553,9.308 C104.359,8.832 105.276,8.593 106.303,8.593 C107.285,8.593 108.147,8.810 108.888,9.242 C109.628,9.675 110.204,10.291 110.615,11.090 C111.025,11.890 111.231,12.825 111.231,13.895 C111.231,14.218 111.154,14.464 111.000,14.632 C110.846,14.801 110.629,14.885 110.351,14.885 ZM107.854,11.475 C107.509,11.079 107.021,10.881 106.391,10.881 C105.760,10.881 105.254,11.083 104.873,11.486 C104.491,11.890 104.264,12.473 104.191,13.235 L108.437,13.235 C108.393,12.458 108.198,11.871 107.854,11.475 ZM97.305,19.791 C96.806,19.791 96.406,19.648 96.106,19.362 C95.805,19.076 95.655,18.699 95.655,18.229 L95.655,18.053 C95.332,18.611 94.874,19.047 94.280,19.362 C93.686,19.677 93.015,19.835 92.267,19.835 C91.343,19.835 90.518,19.597 89.792,19.120 C89.066,18.644 88.501,17.976 88.098,17.118 C87.694,16.260 87.493,15.274 87.493,14.159 C87.493,13.045 87.694,12.066 88.098,11.222 C88.501,10.379 89.062,9.730 89.781,9.275 C90.499,8.821 91.328,8.593 92.267,8.593 C93.000,8.593 93.664,8.747 94.258,9.055 C94.852,9.363 95.310,9.796 95.633,10.353 L95.633,5.491 C95.633,5.051 95.779,4.699 96.073,4.435 C96.366,4.171 96.755,4.039 97.239,4.039 C97.752,4.039 98.166,4.179 98.482,4.457 C98.797,4.736 98.955,5.103 98.955,5.557 L98.955,18.229 C98.955,18.699 98.804,19.076 98.504,19.362 C98.203,19.648 97.803,19.791 97.305,19.791 ZM95.028,11.915 C94.610,11.387 94.012,11.123 93.235,11.123 C92.457,11.123 91.856,11.384 91.431,11.904 C91.005,12.425 90.793,13.177 90.793,14.159 C90.793,15.157 91.005,15.930 91.431,16.480 C91.856,17.030 92.457,17.305 93.235,17.305 C94.012,17.305 94.610,17.038 95.028,16.502 C95.446,15.967 95.655,15.201 95.655,14.203 C95.655,13.206 95.446,12.443 95.028,11.915 ZM83.951,19.791 C83.482,19.791 83.104,19.648 82.818,19.362 C82.532,19.076 82.389,18.706 82.389,18.251 L82.389,18.097 C82.169,18.640 81.802,19.065 81.289,19.373 C80.776,19.681 80.174,19.835 79.485,19.835 C78.752,19.835 78.088,19.688 77.494,19.395 C76.900,19.102 76.431,18.691 76.086,18.163 C75.741,17.635 75.569,17.049 75.569,16.403 C75.569,15.611 75.771,14.988 76.174,14.533 C76.577,14.079 77.226,13.749 78.121,13.543 C79.016,13.338 80.240,13.235 81.795,13.235 L82.367,13.235 L82.367,12.839 C82.367,12.223 82.231,11.776 81.960,11.497 C81.689,11.219 81.238,11.079 80.607,11.079 C79.976,11.079 79.067,11.299 77.879,11.739 C77.542,11.901 77.256,11.981 77.021,11.981 C76.698,11.981 76.442,11.868 76.251,11.640 C76.060,11.413 75.965,11.116 75.965,10.749 C75.965,10.456 76.031,10.214 76.163,10.023 C76.295,9.833 76.508,9.657 76.801,9.495 C77.314,9.217 77.941,8.997 78.682,8.835 C79.423,8.674 80.152,8.593 80.871,8.593 C82.455,8.593 83.628,8.978 84.391,9.748 C85.154,10.518 85.535,11.695 85.535,13.279 L85.535,18.251 C85.535,18.735 85.396,19.113 85.117,19.384 C84.838,19.656 84.450,19.791 83.951,19.791 ZM82.367,14.841 L81.993,14.841 C80.805,14.841 79.973,14.937 79.496,15.127 C79.019,15.318 78.781,15.663 78.781,16.161 C78.781,16.572 78.917,16.906 79.188,17.162 C79.459,17.419 79.800,17.547 80.211,17.547 C80.856,17.547 81.377,17.331 81.773,16.898 C82.169,16.466 82.367,15.905 82.367,15.215 L82.367,14.841 ZM70.553,17.283 C70.861,17.283 71.133,17.243 71.367,17.162 C71.602,17.082 71.888,16.953 72.225,16.777 C72.504,16.645 72.724,16.546 72.885,16.480 C73.047,16.414 73.223,16.381 73.413,16.381 C73.692,16.381 73.923,16.506 74.106,16.755 C74.290,17.005 74.381,17.320 74.381,17.701 C74.381,18.244 74.154,18.647 73.699,18.911 C73.230,19.205 72.687,19.432 72.071,19.593 C71.455,19.754 70.810,19.835 70.135,19.835 C69.021,19.835 68.045,19.608 67.209,19.153 C66.373,18.699 65.732,18.053 65.284,17.217 C64.837,16.381 64.613,15.399 64.613,14.269 C64.613,13.140 64.852,12.146 65.328,11.288 C65.805,10.430 66.476,9.767 67.341,9.297 C68.207,8.828 69.204,8.593 70.333,8.593 C70.920,8.593 71.510,8.674 72.104,8.835 C72.698,8.997 73.230,9.224 73.699,9.517 C74.154,9.796 74.381,10.207 74.381,10.749 C74.381,11.131 74.293,11.442 74.117,11.684 C73.941,11.926 73.707,12.047 73.413,12.047 C73.223,12.047 73.043,12.014 72.874,11.948 C72.706,11.882 72.482,11.783 72.203,11.651 C71.895,11.490 71.620,11.365 71.378,11.277 C71.136,11.189 70.861,11.145 70.553,11.145 C69.732,11.145 69.105,11.406 68.672,11.926 C68.240,12.447 68.023,13.206 68.023,14.203 C68.023,15.201 68.240,15.963 68.672,16.491 C69.105,17.019 69.732,17.283 70.553,17.283 ZM61.886,19.747 C61.607,19.747 61.343,19.670 61.094,19.516 C60.844,19.362 60.654,19.131 60.522,18.823 L59.356,16.227 L51.898,16.227 L50.732,18.823 C50.600,19.131 50.413,19.362 50.171,19.516 C49.929,19.670 49.661,19.747 49.368,19.747 C48.942,19.747 48.561,19.604 48.224,19.318 C47.886,19.032 47.718,18.684 47.718,18.273 C47.718,18.068 47.776,17.833 47.894,17.569 L53.834,5.095 C53.995,4.743 54.237,4.476 54.560,4.292 C54.882,4.109 55.227,4.017 55.594,4.017 C55.975,4.017 56.327,4.113 56.650,4.303 C56.972,4.494 57.222,4.758 57.398,5.095 L63.338,17.569 C63.455,17.833 63.514,18.068 63.514,18.273 C63.514,18.684 63.349,19.032 63.019,19.318 C62.689,19.604 62.311,19.747 61.886,19.747 ZM55.638,7.911 L53.064,13.631 L58.190,13.631 L55.638,7.911 ZM39.094,16.997 C40.179,16.997 40.722,17.445 40.722,18.339 C40.722,19.219 40.179,19.659 39.094,19.659 L31.306,19.659 C30.793,19.659 30.397,19.520 30.118,19.241 C29.839,18.963 29.700,18.567 29.700,18.053 L29.700,5.755 C29.700,5.242 29.839,4.846 30.118,4.567 C30.397,4.289 30.793,4.149 31.306,4.149 L39.094,4.149 C40.179,4.149 40.722,4.589 40.722,5.469 C40.722,6.364 40.179,6.811 39.094,6.811 L33.044,6.811 L33.044,10.441 L38.654,10.441 C39.739,10.441 40.282,10.889 40.282,11.783 C40.282,12.663 39.739,13.103 38.654,13.103 L33.044,13.103 L33.044,16.997 L39.094,16.997 Z"/>
</svg>